# Made in Blockbench 4.11.2
mtllib solarPanel.mtl

o cube
v 0.0625 0.00625 0.125
v 0.0625 0.00625 -0.125
v 0.0625 0 0.125
v 0.0625 0 -0.125
v -0.0625 0.00625 -0.125
v -0.0625 0.00625 0.125
v -0.0625 0 -0.125
v -0.0625 0 0.125
vt 0 1
vt 0.0625 1
vt 0.0625 0.996875
vt 0 0.996875
vt 0 1
vt 0.125 1
vt 0.125 0.996875
vt 0 0.996875
vt 0 1
vt 0.0625 1
vt 0.0625 0.996875
vt 0 0.996875
vt 0 1
vt 0.125 1
vt 0.125 0.996875
vt 0 0.996875
vt 0 1
vt 1 1
vt 1 0
vt 0 0
vt 0 1
vt 0.0625 1
vt 0.0625 0.875
vt 0 0.875
vn 0 0 -1
vn 1 0 0
vn 0 0 1
vn -1 0 0
vn 0 1 0
vn 0 -1 0
usemtl none
f 4/4/1 7/3/1 5/2/1 2/1/1
f 3/8/2 4/7/2 2/6/2 1/5/2
f 8/12/3 3/11/3 1/10/3 6/9/3
f 7/16/4 8/15/4 6/14/4 5/13/4
usemtl m_f76bd484-0841-7bfc-cbc0-580150de588f
f 6/20/5 1/19/5 2/18/5 5/17/5
usemtl none
f 7/24/6 4/23/6 3/22/6 8/21/6